<svg id="visual" viewBox="0 0 900 600" width="900" height="600" xmlns="http://www.w3.org/2000/svg" xmlns:xlink="http://www.w3.org/1999/xlink" version="1.1"><rect x="0" y="0" width="900" height="600" fill="#001220"></rect><path d="M0 443L21.5 434.8C43 426.7 86 410.3 128.8 402.3C171.7 394.3 214.3 394.7 257.2 391.7C300 388.7 343 382.3 385.8 376.8C428.7 371.3 471.3 366.7 514.2 371.2C557 375.7 600 389.3 642.8 400.5C685.7 411.7 728.3 420.3 771.2 418.5C814 416.7 857 404.3 878.5 398.2L900 392L900 601L878.5 601C857 601 814 601 771.2 601C728.3 601 685.7 601 642.8 601C600 601 557 601 514.2 601C471.3 601 428.7 601 385.8 601C343 601 300 601 257.2 601C214.3 601 171.7 601 128.8 601C86 601 43 601 21.5 601L0 601Z" fill="#6600ff"></path><path d="M0 475L21.5 465C43 455 86 435 128.8 432.5C171.7 430 214.3 445 257.2 442.8C300 440.7 343 421.3 385.8 414C428.7 406.7 471.3 411.3 514.2 415.2C557 419 600 422 642.8 431.7C685.7 441.3 728.3 457.7 771.2 459.2C814 460.7 857 447.3 878.5 440.7L900 434L900 601L878.5 601C857 601 814 601 771.2 601C728.3 601 685.7 601 642.8 601C600 601 557 601 514.2 601C471.3 601 428.7 601 385.8 601C343 601 300 601 257.2 601C214.3 601 171.7 601 128.8 601C86 601 43 601 21.5 601L0 601Z" fill="#2856ff"></path><path d="M0 496L21.5 494.2C43 492.3 86 488.7 128.8 483C171.7 477.3 214.3 469.7 257.2 462.3C300 455 343 448 385.8 456C428.7 464 471.3 487 514.2 487.3C557 487.7 600 465.3 642.8 454.5C685.7 443.7 728.3 444.3 771.2 443.8C814 443.3 857 441.7 878.5 440.8L900 440L900 601L878.5 601C857 601 814 601 771.2 601C728.3 601 685.7 601 642.8 601C600 601 557 601 514.2 601C471.3 601 428.7 601 385.8 601C343 601 300 601 257.2 601C214.3 601 171.7 601 128.8 601C86 601 43 601 21.5 601L0 601Z" fill="#0079ff"></path><path d="M0 517L21.5 514.3C43 511.7 86 506.3 128.8 501C171.7 495.7 214.3 490.3 257.2 490.7C300 491 343 497 385.8 501C428.7 505 471.3 507 514.2 507.7C557 508.3 600 507.7 642.8 505.5C685.7 503.3 728.3 499.7 771.2 501.2C814 502.7 857 509.3 878.5 512.7L900 516L900 601L878.5 601C857 601 814 601 771.2 601C728.3 601 685.7 601 642.8 601C600 601 557 601 514.2 601C471.3 601 428.7 601 385.8 601C343 601 300 601 257.2 601C214.3 601 171.7 601 128.8 601C86 601 43 601 21.5 601L0 601Z" fill="#1394fe"></path><path d="M0 527L21.5 533.3C43 539.7 86 552.3 128.8 557.2C171.7 562 214.3 559 257.2 557.7C300 556.3 343 556.7 385.8 557.3C428.7 558 471.3 559 514.2 558.2C557 557.3 600 554.7 642.8 556C685.7 557.3 728.3 562.7 771.2 558.3C814 554 857 540 878.5 533L900 526L900 601L878.5 601C857 601 814 601 771.2 601C728.3 601 685.7 601 642.8 601C600 601 557 601 514.2 601C471.3 601 428.7 601 385.8 601C343 601 300 601 257.2 601C214.3 601 171.7 601 128.8 601C86 601 43 601 21.5 601L0 601Z" fill="#4facf7"></path></svg>